<mxfile host="app.diagrams.net" modified="2023-09-27T08:23:23.106Z" agent="Mozilla/5.0 (Windows NT 10.0; Win64; x64) AppleWebKit/537.36 (KHTML, like Gecko) Chrome/117.0.0.0 Safari/537.36" etag="_pifPRZqxBHN2HCFGJJw" version="21.8.2" type="device">
  <diagram name="Page-1" id="e7e014a7-5840-1c2e-5031-d8a46d1fe8dd">
    <mxGraphModel dx="1105" dy="562" grid="1" gridSize="10" guides="1" tooltips="1" connect="1" arrows="1" fold="1" page="1" pageScale="1" pageWidth="1169" pageHeight="826" background="none" math="0" shadow="0">
      <root>
        <mxCell id="0" />
        <mxCell id="1" parent="0" />
        <mxCell id="5HN4UKg1Xnu_4getq7X6-49" value="Pharmacy Shop Management System" style="swimlane;childLayout=stackLayout;resizeParent=1;resizeParentMax=0;startSize=20;html=1;" parent="1" vertex="1">
          <mxGeometry x="220" y="120" width="650" height="580" as="geometry" />
        </mxCell>
        <mxCell id="5HN4UKg1Xnu_4getq7X6-50" value="User" style="swimlane;startSize=20;html=1;" parent="5HN4UKg1Xnu_4getq7X6-49" vertex="1">
          <mxGeometry y="20" width="190" height="560" as="geometry" />
        </mxCell>
        <mxCell id="m1X64XVrmf0Yqg_bkQr0-19" style="edgeStyle=orthogonalEdgeStyle;rounded=0;orthogonalLoop=1;jettySize=auto;html=1;exitX=0.508;exitY=0.866;exitDx=0;exitDy=0;entryX=0.5;entryY=0;entryDx=0;entryDy=0;exitPerimeter=0;" edge="1" parent="5HN4UKg1Xnu_4getq7X6-50" source="5" target="m1X64XVrmf0Yqg_bkQr0-6">
          <mxGeometry relative="1" as="geometry" />
        </mxCell>
        <mxCell id="5" value="" style="ellipse;shape=startState;fillColor=#000000;strokeColor=none;" parent="5HN4UKg1Xnu_4getq7X6-50" vertex="1">
          <mxGeometry x="80" y="40" width="30" height="30" as="geometry" />
        </mxCell>
        <mxCell id="m1X64XVrmf0Yqg_bkQr0-6" value="Click Reset &lt;br&gt;Password" style="rounded=1;whiteSpace=wrap;html=1;" vertex="1" parent="5HN4UKg1Xnu_4getq7X6-50">
          <mxGeometry x="35" y="110" width="120" height="40" as="geometry" />
        </mxCell>
        <mxCell id="m1X64XVrmf0Yqg_bkQr0-8" value="Fill Fields" style="rounded=1;whiteSpace=wrap;html=1;" vertex="1" parent="5HN4UKg1Xnu_4getq7X6-50">
          <mxGeometry x="30" y="210" width="120" height="40" as="geometry" />
        </mxCell>
        <mxCell id="m1X64XVrmf0Yqg_bkQr0-10" style="edgeStyle=orthogonalEdgeStyle;rounded=0;orthogonalLoop=1;jettySize=auto;html=1;exitX=1;exitY=0.5;exitDx=0;exitDy=0;entryX=0;entryY=0.5;entryDx=0;entryDy=0;" edge="1" parent="5HN4UKg1Xnu_4getq7X6-49" source="m1X64XVrmf0Yqg_bkQr0-8" target="m1X64XVrmf0Yqg_bkQr0-9">
          <mxGeometry relative="1" as="geometry" />
        </mxCell>
        <mxCell id="m1X64XVrmf0Yqg_bkQr0-15" style="edgeStyle=orthogonalEdgeStyle;rounded=0;orthogonalLoop=1;jettySize=auto;html=1;exitX=1;exitY=0.5;exitDx=0;exitDy=0;" edge="1" parent="5HN4UKg1Xnu_4getq7X6-49" source="m1X64XVrmf0Yqg_bkQr0-6" target="m1X64XVrmf0Yqg_bkQr0-7">
          <mxGeometry relative="1" as="geometry" />
        </mxCell>
        <mxCell id="m1X64XVrmf0Yqg_bkQr0-16" style="edgeStyle=orthogonalEdgeStyle;rounded=0;orthogonalLoop=1;jettySize=auto;html=1;exitX=0.5;exitY=1;exitDx=0;exitDy=0;entryX=0.5;entryY=0;entryDx=0;entryDy=0;" edge="1" parent="5HN4UKg1Xnu_4getq7X6-49" source="m1X64XVrmf0Yqg_bkQr0-7" target="m1X64XVrmf0Yqg_bkQr0-8">
          <mxGeometry relative="1" as="geometry" />
        </mxCell>
        <mxCell id="5HN4UKg1Xnu_4getq7X6-51" value="System" style="swimlane;startSize=20;html=1;" parent="5HN4UKg1Xnu_4getq7X6-49" vertex="1">
          <mxGeometry x="190" y="20" width="460" height="560" as="geometry" />
        </mxCell>
        <mxCell id="5HN4UKg1Xnu_4getq7X6-67" value="" style="ellipse;html=1;shape=endState;fillColor=#000000;strokeColor=#000000;" parent="5HN4UKg1Xnu_4getq7X6-51" vertex="1">
          <mxGeometry x="144" y="500" width="30" height="30" as="geometry" />
        </mxCell>
        <mxCell id="m1X64XVrmf0Yqg_bkQr0-7" value="Load Reset &lt;br&gt;Password Page" style="rounded=1;whiteSpace=wrap;html=1;" vertex="1" parent="5HN4UKg1Xnu_4getq7X6-51">
          <mxGeometry x="109" y="110" width="101" height="40" as="geometry" />
        </mxCell>
        <mxCell id="m1X64XVrmf0Yqg_bkQr0-17" style="edgeStyle=orthogonalEdgeStyle;rounded=0;orthogonalLoop=1;jettySize=auto;html=1;exitX=1;exitY=0.5;exitDx=0;exitDy=0;" edge="1" parent="5HN4UKg1Xnu_4getq7X6-51" source="m1X64XVrmf0Yqg_bkQr0-9" target="m1X64XVrmf0Yqg_bkQr0-14">
          <mxGeometry relative="1" as="geometry" />
        </mxCell>
        <mxCell id="m1X64XVrmf0Yqg_bkQr0-21" style="edgeStyle=orthogonalEdgeStyle;rounded=0;orthogonalLoop=1;jettySize=auto;html=1;exitX=0.5;exitY=1;exitDx=0;exitDy=0;entryX=0.5;entryY=0;entryDx=0;entryDy=0;" edge="1" parent="5HN4UKg1Xnu_4getq7X6-51" source="m1X64XVrmf0Yqg_bkQr0-9" target="m1X64XVrmf0Yqg_bkQr0-20">
          <mxGeometry relative="1" as="geometry" />
        </mxCell>
        <mxCell id="m1X64XVrmf0Yqg_bkQr0-9" value="" style="rhombus;whiteSpace=wrap;html=1;" vertex="1" parent="5HN4UKg1Xnu_4getq7X6-51">
          <mxGeometry x="138.5" y="214" width="41" height="32" as="geometry" />
        </mxCell>
        <mxCell id="m1X64XVrmf0Yqg_bkQr0-12" value="[not valid]" style="text;html=1;strokeColor=none;fillColor=none;align=center;verticalAlign=middle;whiteSpace=wrap;rounded=0;" vertex="1" parent="5HN4UKg1Xnu_4getq7X6-51">
          <mxGeometry x="210" y="200" width="60" height="30" as="geometry" />
        </mxCell>
        <mxCell id="m1X64XVrmf0Yqg_bkQr0-13" value="[valid]" style="text;html=1;strokeColor=none;fillColor=none;align=center;verticalAlign=middle;whiteSpace=wrap;rounded=0;" vertex="1" parent="5HN4UKg1Xnu_4getq7X6-51">
          <mxGeometry x="107" y="257" width="60" height="30" as="geometry" />
        </mxCell>
        <mxCell id="m1X64XVrmf0Yqg_bkQr0-18" style="rounded=0;orthogonalLoop=1;jettySize=auto;html=1;exitX=0.5;exitY=0;exitDx=0;exitDy=0;" edge="1" parent="5HN4UKg1Xnu_4getq7X6-51" source="m1X64XVrmf0Yqg_bkQr0-14">
          <mxGeometry relative="1" as="geometry">
            <mxPoint x="160" y="170" as="targetPoint" />
            <Array as="points">
              <mxPoint x="355" y="170" />
            </Array>
          </mxGeometry>
        </mxCell>
        <mxCell id="m1X64XVrmf0Yqg_bkQr0-14" value="Display Error&amp;nbsp;&lt;br&gt;Message" style="rounded=1;whiteSpace=wrap;html=1;" vertex="1" parent="5HN4UKg1Xnu_4getq7X6-51">
          <mxGeometry x="290" y="210" width="130" height="40" as="geometry" />
        </mxCell>
        <mxCell id="m1X64XVrmf0Yqg_bkQr0-22" style="edgeStyle=orthogonalEdgeStyle;rounded=0;orthogonalLoop=1;jettySize=auto;html=1;exitX=0.5;exitY=1;exitDx=0;exitDy=0;entryX=0.5;entryY=0;entryDx=0;entryDy=0;" edge="1" parent="5HN4UKg1Xnu_4getq7X6-51" source="m1X64XVrmf0Yqg_bkQr0-20" target="5HN4UKg1Xnu_4getq7X6-53">
          <mxGeometry relative="1" as="geometry" />
        </mxCell>
        <mxCell id="m1X64XVrmf0Yqg_bkQr0-20" value="Update New Password" style="rounded=1;whiteSpace=wrap;html=1;" vertex="1" parent="5HN4UKg1Xnu_4getq7X6-51">
          <mxGeometry x="94" y="310" width="130" height="40" as="geometry" />
        </mxCell>
        <mxCell id="m1X64XVrmf0Yqg_bkQr0-23" style="rounded=0;orthogonalLoop=1;jettySize=auto;html=1;exitX=0.5;exitY=1;exitDx=0;exitDy=0;" edge="1" parent="5HN4UKg1Xnu_4getq7X6-51" source="5HN4UKg1Xnu_4getq7X6-53" target="5HN4UKg1Xnu_4getq7X6-67">
          <mxGeometry relative="1" as="geometry" />
        </mxCell>
        <mxCell id="5HN4UKg1Xnu_4getq7X6-53" value="Display Successfully&lt;br&gt;&amp;nbsp;Updated" style="rounded=1;whiteSpace=wrap;html=1;" parent="5HN4UKg1Xnu_4getq7X6-51" vertex="1">
          <mxGeometry x="99" y="390" width="120" height="50" as="geometry" />
        </mxCell>
      </root>
    </mxGraphModel>
  </diagram>
</mxfile>
